<svg xmlns="http://www.w3.org/2000/svg" viewBox="0 0 100 100">
  <rect width="100" height="100" fill="#0a0a0a" rx="12"/>
  <path d="M50 18c-8 0-15 3-20 8-5 3-8 7-8 12 0 3 3 9 5 11-2 4-4 10-4 14 0 3 2 6 5 8 2 2 5 4 8 5 2 5 5 9 9 10l5-3c3-1 5-4 7-7 3 1 6 0 9-2 3-2 4-5 4-9 0-3-1-6-3-8 2-2 4-5 4-8 0-6-5-13-12-18-2-2-5-3-9-3z" fill="#c49a3a"/>
  <circle cx="42" cy="42" r="2.5" fill="#0a0a0a"/>
  <circle cx="58" cy="42" r="2.5" fill="#0a0a0a"/>
  <path d="M46 50c0 0 2 2 4 2s4-2 4-2" stroke="#0a0a0a" stroke-width="1.5" fill="none" stroke-linecap="round"/>
  <path d="M35 62c0 0 5-6 15-6s15 6 15 6" stroke="#c49a3a" stroke-width="1" fill="none" opacity="0.5"/>
</svg>
